<svg width="154" height="45" viewBox="0 0 154 45" fill="none" xmlns="http://www.w3.org/2000/svg">
<rect width="154" height="45" rx="5" fill="#DDEFFF"/>
<g clip-path="url(#clip0_110_110)">
<path d="M9.92871 10.0488C9.06934 10.1855 8.40527 10.7568 8.11719 11.6113C8.0293 11.8701 8.02441 12.2461 8.02441 22.5C8.02441 32.7539 8.0293 33.1299 8.11719 33.3887C8.35645 34.1016 8.83984 34.5947 9.55273 34.8682L9.83105 34.9756H20.5H31.1689L31.4473 34.8682C32.1602 34.5947 32.6436 34.1016 32.8828 33.3887C32.9707 33.1299 32.9756 32.7539 32.9756 22.5C32.9756 12.2461 32.9707 11.8701 32.8828 11.6113C32.6436 10.8984 32.1602 10.4053 31.4473 10.1318L31.1689 10.0244L20.6709 10.0195C14.8994 10.0146 10.0654 10.0293 9.92871 10.0488ZM14.2256 12.8076C15.2363 13.0225 16.0908 13.8721 16.2959 14.873C16.6768 16.709 15.0166 18.4082 13.2002 18.042C12.2236 17.8418 11.4668 17.1875 11.1445 16.2549C10.9932 15.8203 10.9736 15.1416 11.1006 14.7021C11.3057 13.9795 11.833 13.3545 12.5117 13.0273C13.1172 12.7344 13.5957 12.6758 14.2256 12.8076ZM27.043 19.1455C27.8682 19.3604 28.3906 19.6533 28.9131 20.1953C29.7236 21.0254 30.1484 22.1436 30.3193 23.8916C30.3633 24.3359 30.3828 25.6152 30.3877 28.1641C30.3877 31.5918 30.3828 31.8115 30.2998 31.9385C30.251 32.0166 30.1436 32.1191 30.0557 32.168C29.9092 32.2607 29.7969 32.2656 28.2734 32.2656C26.501 32.2656 26.4668 32.2607 26.2666 31.9824C26.1738 31.8457 26.1689 31.7578 26.1494 28.2568C26.1348 25.2148 26.1201 24.624 26.0566 24.3555C25.8711 23.6035 25.5781 23.1152 25.1387 22.8516C24.7578 22.627 24.5479 22.5732 23.9912 22.5781C23.3516 22.5781 23.0537 22.6904 22.6289 23.0908C22.2773 23.418 22.0283 23.8672 21.8525 24.4922C21.75 24.8584 21.7451 24.9658 21.7207 28.3594C21.6963 31.6211 21.6914 31.8604 21.6084 31.9824C21.4229 32.251 21.335 32.2656 19.6357 32.2656C17.8975 32.2656 17.8389 32.2559 17.6582 31.9189C17.5752 31.7627 17.5703 31.4697 17.5703 25.7324C17.5703 19.0527 17.5508 19.4775 17.8828 19.2725C18.0244 19.1846 18.1562 19.1797 19.6455 19.1797C21.1592 19.1797 21.2666 19.1846 21.4131 19.2773C21.667 19.4287 21.7207 19.5898 21.7207 20.2148L21.7256 20.7666L21.833 20.6201C22.1943 20.1221 22.8193 19.6143 23.3418 19.3848C24.0303 19.0869 24.665 18.9844 25.7246 19.0039C26.4424 19.0186 26.6523 19.043 27.043 19.1455ZM15.4268 19.292C15.5195 19.3506 15.6318 19.4775 15.6807 19.5703C15.7588 19.7314 15.7637 20.1025 15.7539 25.7812C15.7393 31.8018 15.7393 31.8213 15.6367 31.958C15.417 32.2559 15.3535 32.2656 13.6738 32.2656C12.0234 32.2656 12.0088 32.2656 11.7598 31.9971L11.6377 31.8652L11.623 25.7617C11.6133 19.873 11.6133 19.6484 11.7012 19.5117C11.7549 19.4336 11.8574 19.3262 11.9355 19.2725C12.0674 19.1846 12.1846 19.1797 13.6689 19.1797C15.2412 19.1797 15.2607 19.1797 15.4268 19.292Z" fill="#5389B8"/>
</g>
<path d="M53.1569 28.2679V31H44.4197V28.2679H53.1569ZM45.5759 14V31H42V14H45.5759Z" fill="#5389B8"/>
<path d="M59.0095 14V31H55.4455V14H59.0095Z" fill="#5389B8"/>
<path d="M76.4839 14V31H72.908L65.9349 19.6044V31H62.359V14H65.9349L72.9199 25.4073V14H76.4839Z" fill="#5389B8"/>
<path d="M83.1709 14V31H79.595V14H83.1709ZM93.5649 14L86.6872 22.3949L82.7179 26.5749L82.0743 23.2589L84.7562 19.6628L89.1785 14H93.5649ZM89.5003 31L84.3867 23.1422L87.0329 20.9705L93.7318 31H89.5003Z" fill="#5389B8"/>
<path d="M106.76 28.2679V31H97.5223V28.2679H106.76ZM98.6904 14V31H95.1145V14H98.6904ZM105.556 20.9238V23.5859H97.5223V20.9238H105.556ZM106.748 14V16.7438H97.5223V14H106.748Z" fill="#5389B8"/>
<path d="M114.174 31H110.396L110.419 28.2679H114.174C115.112 28.2679 115.903 28.0616 116.546 27.649C117.19 27.2287 117.675 26.6177 118 25.8159C118.334 25.0142 118.501 24.0451 118.501 22.9087V22.0797C118.501 21.2079 118.406 20.4412 118.215 19.7795C118.032 19.1179 117.758 18.5614 117.393 18.1099C117.027 17.6584 116.578 17.3198 116.046 17.0941C115.513 16.8606 114.901 16.7438 114.21 16.7438H110.324V14H114.21C115.37 14 116.431 14.1946 117.393 14.5838C118.362 14.9652 119.2 15.514 119.908 16.2301C120.615 16.9462 121.159 17.8024 121.541 18.7988C121.93 19.7873 122.125 20.8887 122.125 22.103V22.9087C122.125 24.1152 121.93 25.2166 121.541 26.2129C121.159 27.2092 120.615 28.0655 119.908 28.7816C119.208 29.4899 118.37 30.0387 117.393 30.4279C116.423 30.8093 115.35 31 114.174 31ZM112.422 14V31H108.846V14H112.422Z" fill="#5389B8"/>
<path d="M128.526 14V31H124.962V14H128.526Z" fill="#5389B8"/>
<path d="M146 14V31H142.424L135.451 19.6044V31H131.875V14H135.451L142.436 25.4073V14H146Z" fill="#5389B8"/>
<defs>
<clipPath id="clip0_110_110">
<rect x="8" y="10" width="25" height="25" rx="5" fill="white"/>
</clipPath>
</defs>
</svg>
